HIERARCHY
ROOT root
{
  OFFSET 0 93.2929 0
  CHANNELS 6 Xposition Yposition Zposition Zrotation Xrotation Yrotation
  JOINT torso_1
  {
    OFFSET 0 5.07867 -1.15138
    CHANNELS 6 Xposition Yposition Zposition Zrotation Xrotation Yrotation
    JOINT torso_2
    {
      OFFSET 0 5.61661 1.07143
      CHANNELS 6 Xposition Yposition Zposition Zrotation Xrotation Yrotation
      JOINT torso_3
      {
        OFFSET -1.02604e-17 5.98978 0.11501
        CHANNELS 6 Xposition Yposition Zposition Zrotation Xrotation Yrotation
        JOINT torso_4
        {
          OFFSET -1.10457e-17 6.50583 -0.443523
          CHANNELS 6 Xposition Yposition Zposition Zrotation Xrotation Yrotation
          JOINT torso_5
          {
            OFFSET -1.97295e-17 7.60548 -1.50593
            CHANNELS 6 Xposition Yposition Zposition Zrotation Xrotation Yrotation
            JOINT torso_6
            {
              OFFSET -2.53307e-17 9.49737 -0.914492
              CHANNELS 6 Xposition Yposition Zposition Zrotation Xrotation Yrotation
              JOINT torso_7
              {
                OFFSET -2.90401e-17 10.5513 1.57691
                CHANNELS 6 Xposition Yposition Zposition Zrotation Xrotation Yrotation
                JOINT neck_1
                {
                  OFFSET -1.29193e-17 4.78644 0.715339
                  CHANNELS 6 Xposition Yposition Zposition Zrotation Xrotation Yrotation
                  JOINT neck_2
                  {
                    OFFSET -1.8116e-17 4.82109 0.421791
                    CHANNELS 6 Xposition Yposition Zposition Zrotation Xrotation Yrotation
                    JOINT head
                    {
                      OFFSET -2.00958e-17 4.83041 0.765062
                      CHANNELS 6 Xposition Yposition Zposition Zrotation Xrotation Yrotation
                      End Site
                      {
                        OFFSET 0 0.1 0
                      }
                    }
                  }
                }
                JOINT l_shoulder
                {
                  OFFSET 1.23299 -7.60731 7.53374
                  CHANNELS 6 Xposition Yposition Zposition Zrotation Xrotation Yrotation
                  JOINT l_up_arm
                  {
                    OFFSET 12.9547 3.2495 -3.26872
                    CHANNELS 6 Xposition Yposition Zposition Zrotation Xrotation Yrotation
                    JOINT l_low_arm
                    {
                      OFFSET 29.2081 0.0598081 0.137039
                      CHANNELS 6 Xposition Yposition Zposition Zrotation Xrotation Yrotation
                      JOINT l_hand
                      {
                        OFFSET 24.234 0.0496219 0.113701
                        CHANNELS 6 Xposition Yposition Zposition Zrotation Xrotation Yrotation
                        End Site
                        {
                          OFFSET 0.1 0 0
                        }
                      }
                    }
                  }
                }
                JOINT r_shoulder
                {
                  OFFSET -1.23299 -7.60729 7.53365
                  CHANNELS 6 Xposition Yposition Zposition Zrotation Xrotation Yrotation
                  JOINT r_up_arm
                  {
                    OFFSET -12.9547 3.2495 -3.26872
                    CHANNELS 6 Xposition Yposition Zposition Zrotation Xrotation Yrotation
                    JOINT r_low_arm
                    {
                      OFFSET -29.2081 0.0598081 0.137039
                      CHANNELS 6 Xposition Yposition Zposition Zrotation Xrotation Yrotation
                      JOINT r_hand
                      {
                        OFFSET -24.234 0.0496218 0.113702
                        CHANNELS 6 Xposition Yposition Zposition Zrotation Xrotation Yrotation
                        End Site
                        {
                          OFFSET -0.1 0 0
                        }
                      }
                    }
                  }
                }
              }
            }
          }
        }
      }
    }
  }
  JOINT l_up_leg
  {
    OFFSET 9.23673 -4.20556 2.0327
    CHANNELS 6 Xposition Yposition Zposition Zrotation Xrotation Yrotation
    JOINT l_low_leg
    {
      OFFSET -0.852353 -38.7721 -0.655187
      CHANNELS 6 Xposition Yposition Zposition Zrotation Xrotation Yrotation
      JOINT l_foot
      {
        OFFSET -2.32622 -40.4017 -6.04875
        CHANNELS 6 Xposition Yposition Zposition Zrotation Xrotation Yrotation
        JOINT l_toes
        {
          OFFSET 0.779096 -9.8844 12.4959
          CHANNELS 6 Xposition Yposition Zposition Zrotation Xrotation Yrotation
          End Site
          {
            OFFSET 0 0 0.1
          }
        }
      }
    }
  }
  JOINT r_up_leg
  {
    OFFSET -9.23673 -4.20556 2.0327
    CHANNELS 6 Xposition Yposition Zposition Zrotation Xrotation Yrotation
    JOINT r_low_leg
    {
      OFFSET 0.852353 -38.7721 -0.655187
      CHANNELS 6 Xposition Yposition Zposition Zrotation Xrotation Yrotation
      JOINT r_foot
      {
        OFFSET 2.32622 -40.4017 -6.04875
        CHANNELS 6 Xposition Yposition Zposition Zrotation Xrotation Yrotation
        JOINT r_toes
        {
          OFFSET -0.779096 -9.8844 12.4959
          CHANNELS 6 Xposition Yposition Zposition Zrotation Xrotation Yrotation
          End Site
          {
            OFFSET 0 0 0.1
          }
        }
      }
    }
  }
}
MOTION
Frames: 8
Frame Time: 0.016667
7.41428 91.0221 51.8456 2.79133 -0.872908 10.5514 0 5.07867 -1.15138 -1.87187 0.580379 1.03172 0 5.61661 1.07143 -1.87706 0.398771 1.11186 -1.02604e-17 5.98978 0.11501 -1.61594 0.415098 1.37092 -1.10457e-17 6.50583 -0.443523 -1.24545 0.0151693 1.45507 -1.97295e-17 7.60548 -1.50593 -0.470046 0.390161 1.78183 -2.53307e-17 9.49737 -0.914492 0.534177 -1.01461 1.33672 -2.90401e-17 10.5513 1.57691 0.43617 0.50392 -0.353162 -1.29193e-17 4.78644 0.715339 -0.873613 7.63366 -10.0204 -1.8116e-17 4.82109 0.421791 2.88201 2.13516 -4.8272 -2.00958e-17 4.83041 0.765062 4.41411 -0.761524 0.828774 1.23299 -7.60731 7.53374 25.4524 6.56115 3.64924 12.9547 3.2495 -3.26872 -110.707 17.3329 15.539 29.2081 0.0598081 0.137039 5.89959 -1.53073 -29.6606 24.234 0.0496219 0.113701 4.59875 -37.028 9.03258 -1.23299 -7.60729 7.53365 -18.9707 -0.737674 -7.70929 -12.9547 3.2495 -3.26872 77.8944 -5.64149 18.137 -29.2081 0.0598081 0.137039 -11.7799 -14.3777 102.035 -24.234 0.0496218 0.113702 -0.0888263 -9.63043 5.43494 9.23673 -4.20556 2.0327 4.91218 7.38759 41.1974 -0.852353 -38.7721 -0.655187 -2.83987 10.5407 0.0774751 -2.32622 -40.4017 -6.04875 -7.22228 -9.11113 16.0809 0.779096 -9.8844 12.4959 2.48481e-17 -7.95139e-16 1.2424e-17 -9.23673 -4.20556 2.0327 -3.7916 -22.4182 33.7256 0.852353 -38.7721 -0.655187 2.98121 11.0557 -0.0949625 2.32622 -40.4017 -6.04875 9.75437 8.814 -16.3847 -0.779096 -9.8844 12.4959 -9.67596e-17 -5.87148e-16 -1.27627e-14 
7.31301 90.9974 51.8257 2.61115 -1.00751 10.1722 0 5.07867 -1.15138 -1.73075 0.563969 1.11553 0 5.61661 1.07143 -1.77489 0.414907 1.23015 -1.02604e-17 5.98978 0.11501 -1.54665 0.483932 1.49254 -1.10457e-17 6.50583 -0.443523 -1.21494 0.158934 1.59318 -1.97295e-17 7.60548 -1.50593 -0.446493 0.558862 1.92474 -2.53307e-17 9.49737 -0.914492 0.579782 -0.783848 1.47909 -2.90401e-17 10.5513 1.57691 0.426142 0.466551 -0.327296 -1.29193e-17 4.78644 0.715339 -1.05997 7.03895 -10.1592 -1.8116e-17 4.82109 0.421791 2.97799 2.05855 -4.89058 -2.00958e-17 4.83041 0.765062 4.39251 -0.734645 0.532018 1.23299 -7.60731 7.53374 24.9337 6.33959 3.56839 12.9547 3.2495 -3.26872 -110.375 17.015 14.9944 29.2081 0.0598081 0.137039 5.88412 -1.52205 -29.5755 24.234 0.0496219 0.113701 4.49313 -36.335 8.91801 -1.23299 -7.60729 7.53365 -17.4755 -0.721106 -7.19489 -12.9547 3.2495 -3.26872 77.1201 -5.58393 17.4169 -29.2081 0.0598081 0.137039 -11.7703 -14.422 102.256 -24.234 0.0496218 0.113702 -0.258079 -8.63072 6.09305 9.23673 -4.20556 2.0327 5.20986 7.50754 41.4104 -0.852353 -38.7721 -0.655187 -2.89019 10.7242 0.0835554 -2.32622 -40.4017 -6.04875 -7.1205 -9.25551 16.0916 0.779096 -9.8844 12.4959 2.48481e-17 -7.95139e-16 1.2424e-17 -9.23673 -4.20556 2.0327 -3.33174 -22.3646 34.0977 0.852353 -38.7721 -0.655187 2.97647 11.0384 -0.0943552 2.32622 -40.4017 -6.04875 9.60292 8.92856 -16.3846 -0.779096 -9.8844 12.4959 -2.68527e-15 -4.75152e-16 -1.26538e-14 
7.23304 90.9486 51.8044 2.4729 -1.06566 9.84178 0 5.07867 -1.15138 -1.67264 0.613768 1.19787 0 5.61661 1.07143 -1.74422 0.458598 1.33333 -1.02604e-17 5.98978 0.11501 -1.53255 0.523246 1.59957 -1.10457e-17 6.50583 -0.443523 -1.21935 0.1778 1.71049 -1.97295e-17 7.60548 -1.50593 -0.439388 0.566917 2.04937 -2.53307e-17 9.49737 -0.914492 0.618175 -0.784381 1.59712 -2.90401e-17 10.5513 1.57691 0.428125 0.458847 -0.307075 -1.29193e-17 4.78644 0.715339 -1.19065 6.62769 -10.3059 -1.8116e-17 4.82109 0.421791 3.03649 2.12638 -4.96076 -2.00958e-17 4.83041 0.765062 4.4994 -0.663175 0.33466 1.23299 -7.60731 7.53374 24.9529 6.33197 3.47193 12.9547 3.2495 -3.26872 -110.494 16.9491 14.7832 29.2081 0.0598081 0.137039 5.89672 -1.52912 -29.6448 24.234 0.0496219 0.113701 4.55733 -35.8026 8.91734 -1.23299 -7.60729 7.53365 -16.8057 -0.662883 -6.89961 -12.9547 3.2495 -3.26872 76.5668 -6.13683 17.3053 -29.2081 0.0598081 0.137039 -11.7742 -14.404 102.166 -24.234 0.0496218 0.113702 -0.239936 -8.67067 5.73892 9.23673 -4.20556 2.0327 5.48836 7.53564 41.6024 -0.852353 -38.7721 -0.655187 -2.96357 10.9915 0.0927113 -2.32622 -40.4017 -6.04875 -7.12353 -9.49067 16.0888 0.779096 -9.8844 12.4959 2.48481e-17 -7.95139e-16 1.2424e-17 -9.23673 -4.20556 2.0327 -2.98049 -22.3834 34.392 0.852353 -38.7721 -0.655187 2.9859 11.0727 -0.0955644 2.32622 -40.4017 -6.04875 9.52801 8.86961 -16.3599 -0.779096 -9.8844 12.4959 -9.92966e-16 -5.43589e-16 -1.27285e-14 
7.18161 90.8896 51.7745 2.36927 -1.09586 9.60326 0 5.07867 -1.15138 -1.67511 0.621037 1.25826 0 5.61661 1.07143 -1.75938 0.459347 1.4034 -1.02604e-17 5.98978 0.11501 -1.54818 0.523786 1.67309 -1.10457e-17 6.50583 -0.443523 -1.23646 0.160408 1.78994 -1.97295e-17 7.60548 -1.50593 -0.437074 0.557588 2.1348 -2.53307e-17 9.49737 -0.914492 0.651493 -0.812271 1.67323 -2.90401e-17 10.5513 1.57691 0.434481 0.460781 -0.296827 -1.29193e-17 4.78644 0.715339 -1.22177 6.51863 -10.392 -1.8116e-17 4.82109 0.421791 3.1447 2.145 -4.99879 -2.00958e-17 4.83041 0.765062 4.59361 -0.655428 0.244355 1.23299 -7.60731 7.53374 25.0885 6.31891 3.4749 12.9547 3.2495 -3.26872 -110.7 16.7717 14.5595 29.2081 0.0598081 0.137039 5.85763 -1.50724 -29.43 24.234 0.0496219 0.113701 4.68724 -35.1947 8.87403 -1.23299 -7.60729 7.53365 -16.6291 -0.652065 -6.87426 -12.9547 3.2495 -3.26872 76.8267 -6.85056 17.479 -29.2081 0.0598081 0.137039 -11.8006 -14.2789 101.544 -24.234 0.0496218 0.113702 0.0608773 -9.1557 5.43675 9.23673 -4.20556 2.0327 5.67493 7.54704 41.7092 -0.852353 -38.7721 -0.655187 -3.0173 11.1869 0.0996317 -2.32622 -40.4017 -6.04875 -7.05874 -9.75143 16.0785 0.779096 -9.8844 12.4959 2.48481e-17 -7.95139e-16 1.2424e-17 -9.23673 -4.20556 2.0327 -2.70457 -22.4418 34.6431 0.852353 -38.7721 -0.655187 3.01622 11.183 -0.0994913 2.32622 -40.4017 -6.04875 9.36606 8.75893 -16.3056 -0.779096 -9.8844 12.4959 -1.98833e-15 -5.06257e-16 -1.26818e-14 
7.16301 90.8305 51.7353 2.3039 -1.10875 9.46076 0 5.07867 -1.15138 -1.70205 0.644589 1.29747 0 5.61661 1.07143 -1.78827 0.469086 1.44498 -1.02604e-17 5.98978 0.11501 -1.56906 0.527514 1.71599 -1.10457e-17 6.50583 -0.443523 -1.25027 0.131892 1.8355 -1.97295e-17 7.60548 -1.50593 -0.431234 0.534075 2.18413 -2.53307e-17 9.49737 -0.914492 0.682572 -0.85336 1.71219 -2.90401e-17 10.5513 1.57691 0.439436 0.464579 -0.291342 -1.29193e-17 4.78644 0.715339 -1.21409 6.48769 -10.346 -1.8116e-17 4.82109 0.421791 3.22504 2.12927 -4.97121 -2.00958e-17 4.83041 0.765062 4.65936 -0.700356 0.099599 1.23299 -7.60731 7.53374 25.1467 6.29744 3.48088 12.9547 3.2495 -3.26872 -110.824 16.3914 14.4374 29.2081 0.0598081 0.137039 5.83176 -1.49287 -29.288 24.234 0.0496219 0.113701 4.76677 -34.577 8.79632 -1.23299 -7.60729 7.53365 -16.52 -0.666233 -6.83654 -12.9547 3.2495 -3.26872 77.7337 -7.76059 17.7546 -29.2081 0.0598081 0.137039 -11.8368 -14.0947 100.631 -24.234 0.0496218 0.113702 0.559394 -9.82377 5.36349 9.23673 -4.20556 2.0327 5.77101 7.55782 41.772 -0.852353 -38.7721 -0.655187 -3.04932 11.3033 0.103844 -2.32622 -40.4017 -6.04875 -7.02503 -10.0218 16.0663 0.779096 -9.8844 12.4959 2.48481e-17 -7.95139e-16 1.2424e-17 -9.23673 -4.20556 2.0327 -2.56096 -22.4806 34.7394 0.852353 -38.7721 -0.655187 3.03869 11.2646 -0.102438 2.32622 -40.4017 -6.04875 9.29935 8.56493 -16.2636 -0.779096 -9.8844 12.4959 -1.68895e-15 -5.2184e-16 -1.26974e-14 
7.17477 90.7732 51.6879 2.2799 -1.07683 9.41883 0 5.07867 -1.15138 -1.74301 0.672814 1.32748 0 5.61661 1.07143 -1.82432 0.482935 1.47552 -1.02604e-17 5.98978 0.11501 -1.59168 0.532376 1.74698 -1.10457e-17 6.50583 -0.443523 -1.26066 0.0976483 1.86749 -1.97295e-17 7.60548 -1.50593 -0.420892 0.501572 2.21873 -2.53307e-17 9.49737 -0.914492 0.717275 -0.90642 1.73452 -2.90401e-17 10.5513 1.57691 0.444301 0.466262 -0.287255 -1.29193e-17 4.78644 0.715339 -1.18703 6.50842 -10.2703 -1.8116e-17 4.82109 0.421791 3.29923 2.11429 -4.927 -2.00958e-17 4.83041 0.765062 4.66353 -0.811951 -0.0791441 1.23299 -7.60731 7.53374 25.1374 6.26255 3.4495 12.9547 3.2495 -3.26872 -110.712 16.0663 14.2502 29.2081 0.0598081 0.137039 5.7785 -1.46354 -28.9963 24.234 0.0496219 0.113701 4.6431 -34.1366 8.55076 -1.23299 -7.60729 7.53365 -16.33 -0.67039 -6.7268 -12.9547 3.2495 -3.26872 79.0543 -8.71311 17.8645 -29.2081 0.0598081 0.137039 -11.8694 -13.9133 99.7353 -24.234 0.0496218 0.113702 1.01402 -10.4719 5.42462 9.23673 -4.20556 2.0327 5.76719 7.536 41.7873 -0.852353 -38.7721 -0.655187 -3.05871 11.3374 0.105092 -2.32622 -40.4017 -6.04875 -6.9778 -10.2944 16.0562 0.779096 -9.8844 12.4959 -7.43049e-17 -7.98237e-16 1.55226e-17 -9.23673 -4.20556 2.0327 -2.52982 -22.5381 34.7193 0.852353 -38.7721 -0.655187 3.06011 11.3424 -0.105277 2.32622 -40.4017 -6.04875 9.1857 8.32634 -16.2155 -0.779096 -9.8844 12.4959 -2.08844e-15 -5.03129e-16 -1.26818e-14 
7.21499 90.7227 51.6355 2.30569 -1.0098 9.5148 0 5.07867 -1.15138 -1.77897 0.731582 1.33774 0 5.61661 1.07143 -1.8528 0.515607 1.48752 -1.02604e-17 5.98978 0.11501 -1.60819 0.534837 1.76106 -1.10457e-17 6.50583 -0.443523 -1.2647 0.0288284 1.88123 -1.97295e-17 7.60548 -1.50593 -0.409135 0.417935 2.23167 -2.53307e-17 9.49737 -0.914492 0.743895 -1.02571 1.73884 -2.90401e-17 10.5513 1.57691 0.447603 0.472576 -0.280456 -1.29193e-17 4.78644 0.715339 -1.15866 6.55101 -10.2683 -1.8116e-17 4.82109 0.421791 3.33244 2.16773 -4.91705 -2.00958e-17 4.83041 0.765062 4.60966 -0.906738 -0.178545 1.23299 -7.60731 7.53374 25.201 6.27173 3.39606 12.9547 3.2495 -3.26872 -110.682 15.7131 14.1496 29.2081 0.0598081 0.137039 5.74745 -1.44661 -28.8267 24.234 0.0496219 0.113701 4.48019 -33.6458 8.37682 -1.23299 -7.60729 7.53365 -16.2595 -0.635715 -6.57062 -12.9547 3.2495 -3.26872 80.1523 -9.85796 17.6624 -29.2081 0.0598081 0.137039 -11.8966 -13.747 98.9174 -24.234 0.0496218 0.113702 1.38113 -11.7525 5.39065 9.23673 -4.20556 2.0327 5.67259 7.48917 41.7307 -0.852353 -38.7721 -0.655187 -3.04701 11.2949 0.103538 -2.32622 -40.4017 -6.04875 -7.01579 -10.5523 16.0446 0.779096 -9.8844 12.4959 -1.74418e-16 -8.01366e-16 1.86511e-17 -9.23673 -4.20556 2.0327 -2.64993 -22.6049 34.5553 0.852353 -38.7721 -0.655187 3.08216 11.4225 -0.108232 2.32622 -40.4017 -6.04875 9.17199 8.0177 -16.1837 -0.779096 -9.8844 12.4959 -3.9805e-16 -5.68377e-16 -1.27533e-14 
7.27762 90.6838 51.5858 2.41646 -0.901629 9.73962 0 5.07867 -1.15138 -1.71575 0.719809 1.38089 0 5.61661 1.07143 -1.8046 0.530117 1.56149 -1.02604e-17 5.98978 0.11501 -1.57014 0.589935 1.8431 -1.10457e-17 6.50583 -0.443523 -1.24519 0.118591 1.97712 -1.97295e-17 7.60548 -1.50593 -0.387546 0.526459 2.3295 -2.53307e-17 9.49737 -0.914492 0.787812 -0.873007 1.83778 -2.90401e-17 10.5513 1.57691 0.438471 0.425449 -0.241253 -1.29193e-17 4.78644 0.715339 -1.37437 5.89927 -10.5533 -1.8116e-17 4.82109 0.421791 3.35599 2.18801 -5.03778 -2.00958e-17 4.83041 0.765062 4.44442 -0.770589 -0.484223 1.23299 -7.60731 7.53374 24.6133 6.12649 3.15571 12.9547 3.2495 -3.26872 -110.136 15.6927 13.6471 29.2081 0.0598081 0.137039 5.73502 -1.43986 -28.7588 24.234 0.0496219 0.113701 4.20977 -33.2239 8.18198 -1.23299 -7.60729 7.53365 -14.3324 -0.549851 -5.5542 -12.9547 3.2495 -3.26872 79.9307 -11.7049 16.0911 -29.2081 0.0598081 0.137039 -11.9012 -13.7176 98.7726 -24.234 0.0496218 0.113702 1.35985 -12.5083 6.55165 9.23673 -4.20556 2.0327 5.39375 7.44747 41.6383 -0.852353 -38.7721 -0.655187 -2.98783 11.0797 0.0958132 -2.32622 -40.4017 -6.04875 -6.93915 -10.7168 16.0348 0.779096 -9.8844 12.4959 2.24121e-16 -7.88911e-16 6.19677e-18 -9.23673 -4.20556 2.0327 -2.91564 -22.6743 34.271 0.852353 -38.7721 -0.655187 3.10869 11.5188 -0.111825 2.32622 -40.4017 -6.04875 9.01511 7.64638 -16.1585 -0.779096 -9.8844 12.4959 9.96364e-17 -5.93256e-16 -1.27688e-14 
